# xmcd
#
# Track frame offsets: 
#        150
#        19966
#        37677
#        61920
#        90922
#        123307
#        143189
#        152801
#        174355
#        194039
#        220316
#        227011
#        241926
#
# Disc length: 3504 seconds
#
# Revision: 0
# Processed by: cddbd v1.5.2PL0 Copyright (c) Steve Scherf et al.
# Submitted via: ExactAudioCopyFreeDBPlugin 1.0
#
DISCID=a70dae0d
DTITLE=Klak Tik - Must We Find A Winner
DYEAR=2011
DGENRE=Country
TTITLE0=The 2nd Wave Is Sometimes Bigger
TTITLE1=Carpet Swept
TTITLE2=With Ernest and George
TTITLE3=I Am Your Memory
TTITLE4=Tomme Domme
TTITLE5=Kneel To Avoid Beheading
TTITLE6=Knuckles, Depressed
TTITLE7=Driverless Train To Expo
TTITLE8=Measuring Light
TTITLE9=Catholic Suicide
TTITLE10=Sweeping Statements
TTITLE11=Business As Usual
TTITLE12=The Summer Last
EXTD=
EXTT0=
EXTT1=
EXTT2=
EXTT3=
EXTT4=
EXTT5=
EXTT6=
EXTT7=
EXTT8=
EXTT9=
EXTT10=
EXTT11=
EXTT12=
PLAYORDER=
